<svg xmlns="http://www.w3.org/2000/svg" xml:space="preserve" viewBox="0 0 1000 1000"><path d="M822.44 114.56c-108.07 77.88-236.25 194.25-323.32 292.25-24.5 28-50.75 57.75-58.19 65.63l-13.13 14.44L329.37 430c-54.25-31.06-100.63-56.87-102.81-56.87-2.63 0-17.06 12.69-32.37 28l-27.56 27.56 70 87.06c78.31 97.57 132.13 170.63 167.56 226.19 13.13 20.56 24.5 37.63 25.81 38.06 1.31 0 7-9.19 13.13-20.56 19.69-37.62 129.06-199.06 185.5-274.31C739.31 337.25 860.94 199 958.5 109.31L990 80H869.69l-47.25 34.56z"/><path d="M97.5 159.63c-32.37 12.68-65.63 45.93-77.87 79.18C10 263.75 10 268.13 10 535s0 271.25 9.63 296.19c12.69 33.69 45.5 66.5 79.19 79.19 24.94 9.63 29.31 9.63 296.19 9.63s271.25 0 296.19-9.63c34.12-12.68 66.5-45.06 79.63-79.19 9.19-24.94 9.19-30.19 8.31-198.63l-1.31-173.25-33.71 44.19L710 547.69v121.62c0 117.68-.44 122.5-9.63 141.31-7.44 14.44-15.31 22.31-29.75 29.31L651.37 850H138.62l-19.25-9.63c-14.44-7.44-22.31-15.31-29.31-29.75L80 791.37V278.62l10.06-19.25c7-14.44 14.88-22.31 29.31-29.75 19.25-9.63 21-9.63 218.75-9.63l199.06-.44L574.37 185l37.19-35-245 .44c-238 0-245.87.44-269.06 9.19z"/></svg>