<svg xmlns="http://www.w3.org/2000/svg" width="121.291" height="120.379"><path d="M233.345 448.182c-7.583-1.324-13.508-4.35-19.124-9.767-7.088-6.837-10.111-14.047-10.081-24.042.013-4.585.25-6.07 1.517-9.563 3.373-9.293 9.673-16.566 18.208-21.021 3.297-1.72 3.312-1.723 10.554-1.675 6.055.04 7.963.257 11.557 1.309 6.166 1.805 11.165 4.683 15.557 8.958 4.333 4.219 6.752 7.895 8.743 13.29 1.21 3.278 1.4 4.63 1.401 9.994.002 5.337-.197 6.786-1.431 10.379-4.45 12.958-16.497 21.749-30.43 22.204-2.82.093-5.733.062-6.471-.066z" style="fill:#0ff" transform="translate(-196.005 -372.77)"/><path d="M234.18 373.384c.035.288-.53.63-1.6 1.09-1.068.46-2.643 1.043-4.594 1.916-1.95.873-4.281 2.042-6.776 3.697-2.495 1.655-5.157 3.802-7.618 6.585a36.867 36.867 0 0 0-5.944 9.171c-1.624 3.57-2.791 7.638-3.133 11.97-.285 3.531-.02 7.269.875 10.992.894 3.722 2.416 7.43 4.61 10.804 1.953 3.014 4.465 5.796 7.42 8.153 2.954 2.356 6.351 4.287 10.02 5.566 4.978 1.74 10.527 2.347 15.906 1.513l.276-.044c4.428-.71 8.663-2.443 12.345-4.858 3.683-2.415 6.81-5.511 9.115-8.992 2.574-3.852 4.19-8.25 4.912-12.642.721-4.393.549-8.78-.409-12.78-1.145-4.87-3.455-9.25-6.279-12.835-2.824-3.584-6.164-6.374-9.565-8.348-3.696-2.16-7.49-3.392-10.911-4.073-3.42-.68-6.476-.812-8.979-.762-2.503.05-4.465.278-5.829.385-1.363.106-2.137.085-2.248-.21-.11-.297.447-.858 1.703-1.56 1.256-.7 3.219-1.536 5.902-2.174 2.683-.638 6.098-1.073 10.094-.827a37.165 37.165 0 0 1 13.293 3.35c4.322 2.005 8.664 5.048 12.43 9.207 3.765 4.16 6.953 9.439 8.75 15.62 1.463 5.088 1.937 10.673 1.207 16.33-.73 5.656-2.663 11.383-5.946 16.58-2.974 4.67-6.977 8.792-11.746 11.995-4.77 3.203-10.304 5.487-16.23 6.464l-.367.058c-7.126 1.087-14.31.261-20.756-2.091a43.092 43.092 0 0 1-12.806-7.398 42.9 42.9 0 0 1-9.206-10.7 42.593 42.593 0 0 1-5.32-13.89 42.169 42.169 0 0 1-.381-13.748 41.503 41.503 0 0 1 4.796-14.334 40.43 40.43 0 0 1 8.035-10.227 38.338 38.338 0 0 1 9.654-6.45c3.065-1.43 5.846-2.226 8.13-2.66 2.285-.433 4.077-.507 5.288-.43 1.212.076 1.848.3 1.882.587zM279.366 448.884c1.803-2.09 11.7 3.491 22.09 12.456 10.39 8.966 17.359 17.938 15.556 20.028-1.803 2.09-11.7-3.491-22.09-12.456-10.39-8.966-17.36-17.938-15.556-20.028zM273.075 455.237c2.072-1.823 10.959 4.891 19.836 14.986 8.877 10.094 14.4 19.766 12.327 21.589-2.073 1.823-10.96-4.891-19.837-14.986-8.877-10.094-14.399-19.766-12.326-21.589z" style="fill:#000;fill-rule:evenodd;stroke:none" transform="translate(-196.005 -372.77)"/><path d="M261.944 438.087c1.916-1.986 7.733.51 12.985 5.574 5.251 5.064 7.959 10.786 6.043 12.773-1.916 1.986-7.733-.51-12.984-5.574-5.252-5.064-7.96-10.786-6.044-12.773zM315.81 478.385c2.064 1.832.954 6.458-2.478 10.327-3.432 3.869-7.894 5.522-9.958 3.69-2.065-1.831-.955-6.458 2.477-10.326 3.432-3.87 7.894-5.523 9.958-3.69z" style="fill:#000;fill-rule:evenodd;stroke:none" transform="translate(-196.005 -372.77)"/></svg>